<svg id="Capa_1" data-name="Capa 1" xmlns="http://www.w3.org/2000/svg" viewBox="0 0 81 82"><defs><style>.cls-1{fill:#b849ff;}</style></defs><path class="cls-1" d="M70,21.2a14,14,0,0,0-1,1.34c-3.31,5.94-6.66,11.87-9.87,17.86A6.32,6.32,0,0,1,53,44c-6.59,0-13.19,0-19.79,0a1.75,1.75,0,0,0-1.9,1.16c-.46,1.07-1.09,2.08-1.63,3.13-.65,1.27-.44,1.63,1,1.63H64v5.88H29.33c-5.38,0-8.18-4.92-5.48-9.58C24.92,44.3,26,42.47,27,40.59a1.91,1.91,0,0,0,.12-1.51c-3.25-7-6.56-13.88-9.82-20.82a1.41,1.41,0,0,0-1.5-.93c-1.61,0-3.23,0-4.84-.06V11.5h9.7c.7,1.55,1.48,3.07,2.09,4.65a1.82,1.82,0,0,0,2,1.32c13.83,0,27.67,0,41.5,0,1.76,0,3.06.47,3.69,2.21Z"/><path class="cls-1" d="M57.15,70.5a15.29,15.29,0,0,1-3.26-2,5.72,5.72,0,0,1,.84-8.6,5.85,5.85,0,1,1,6.17,9.9c-.53.28-1.1.48-1.65.72Z"/><path class="cls-1" d="M27.78,70.5a6.23,6.23,0,0,1-4.71-4.25,5.87,5.87,0,1,1,7.52,3.92l-1,.33Z"/></svg>